<?xml version="1.0" encoding="UTF-8" standalone="no"?>
<svg xmlns="http://www.w3.org/2000/svg" version="1.1" width="2048" height="2048" viewBox="0 0 16 16">
	<rect style="fill:#fff" width="16" height="16" x="0" y="0" />
	<path style="fill:#1be01b" d="M 12.9794,2.9906 V 4.9943 L 11.9925,4.9644 11.9626,6.9681 h -1.0169 l 0.0299,0.957 0.9869,0.0897 0.0299,1.914 1.0168,0.0598 -0.0897,2.0336 -1.8841,-0.0598 0.0299,-1.9439 L 9.9887,9.899 9.9588,7.985 8.9719,7.9551 v 4.0074 L 7.985,12.0223 8.0149,13.0391 3.9477,12.9494 v -0.957 L 2.9309,11.9326 2.9608,9.9289 4.9944,9.9887 v 1.9738 L 6.9383,11.8728 V 4.0373 L 5.9813,4.0074 5.9514,2.9607 9.9289,2.9906 9.9887,3.9775 9.0018,4.0373 V 6.9471444 L 9.9289,6.9383 9.899,4.9046 11.0056,4.9345 V 2.9906 Z" />
	<style>
		@media (prefers-color-scheme: dark) {
			rect {
				display: none;
			}
		}
	</style>
</svg>
